# xmcd
#
# Track frame offsets: 
#        150
#        13290
#        27272
#        40817
#        53955
#        68892
#        82260
#        96635
#        108807
#        118625
#        130907
#        143867
#        158357
#        169742
#        180487
#        193002
#
# Disc length: 2735 seconds
#
# Revision: 0
# Processed by: cddbd v1.5.1PL0 Copyright (c) Steve Scherf et al.
# Submitted via: ExactAudioCopy v0.95a5
#
DISCID=dc0aad10
DTITLE=Sons of the Pioneers - RCA Country Legends
DYEAR=2004
DGENRE=Country
TTITLE0=Cool Water
TTITLE1=Room Full of Roses
TTITLE2=Baby Doll
TTITLE3=Cigareetes, Whusky and Wild, Wild Women
TTITLE4=Riders in the Sky
TTITLE5=Teardrops in My Heart
TTITLE6=Wind
TTITLE7=Tumbling Tumbleweeds
TTITLE8=Pins and Needles
TTITLE9=Grievin' My Heart out for You
TTITLE10=Blue Shadows on the Trail
TTITLE11=Old Man Atom
TTITLE12=Diesel Smoke
TTITLE13=(Don't Your Conscience Ever Bother You) Hang Your Head in Sha
TTITLE13=me
TTITLE14=South in My Soul
TTITLE15=Farr-Away Blues
EXTD=
EXTT0=
EXTT1=
EXTT2=
EXTT3=
EXTT4=
EXTT5=
EXTT6=
EXTT7=
EXTT8=
EXTT9=
EXTT10=
EXTT11=
EXTT12=
EXTT13=
EXTT14=
EXTT15=
PLAYORDER=
